<?xml version="1.0" standalone="no"?>
<!DOCTYPE svg PUBLIC "-//W3C//DTD SVG 20010904//EN"
 "http://www.w3.org/TR/2001/REC-SVG-20010904/DTD/svg10.dtd">
<svg version="1.0" xmlns="http://www.w3.org/2000/svg"
 width="512.000000pt" height="512.000000pt" viewBox="0 0 512.000000 512.000000"
 preserveAspectRatio="xMidYMid meet">
<metadata>
Created by potrace 1.14, written by Peter Selinger 2001-2017
</metadata>
<g transform="translate(0.000000,512.000000) scale(0.100000,-0.100000)"
fill="#000000" stroke="none">
<path d="M4688 5109 c-377 -40 -678 -128 -1023 -300 -372 -186 -753 -480
-1099 -850 l-61 -66 -100 -6 c-99 -6 -262 -41 -340 -73 -22 -9 -49 -20 -60
-24 -63 -23 -302 -147 -375 -194 -162 -104 -379 -266 -486 -362 -12 -10 -45
-39 -73 -64 -29 -25 -104 -95 -167 -155 -93 -90 -114 -115 -114 -139 0 -34 37
-70 111 -109 30 -15 77 -40 104 -56 28 -15 129 -72 225 -125 96 -53 179 -101
183 -105 5 -5 -2 -26 -15 -47 -54 -86 -131 -260 -135 -304 l-4 -45 415 -414
c400 -400 416 -415 452 -414 24 1 89 28 195 81 156 78 159 79 172 58 7 -11 83
-146 168 -300 85 -153 164 -285 176 -293 43 -29 74 -9 196 120 213 228 316
351 449 538 249 349 389 676 404 939 l6 95 131 131 c434 429 706 814 884 1248
138 335 200 628 210 993 l6 201 -27 27 -26 26 -158 -2 c-86 -2 -187 -6 -224
-10z"/>
<path d="M1102 1795 c-108 -24 -206 -80 -290 -164 -175 -176 -492 -642 -658
-967 -106 -207 -148 -338 -149 -454 0 -99 15 -134 79 -178 36 -25 46 -27 135
-26 106 1 179 21 334 91 310 141 838 487 1062 695 337 315 214 860 -225 992
-77 24 -211 29 -288 11z"/>
</g>
</svg>
