<svg xmlns="http://www.w3.org/2000/svg" viewBox="0 0 256 256" fill="none">
  <g fill="currentColor">
    <rect x="182.857" y="48.762" width="24.381" height="12.19" rx="5" />
    <rect x="0" y="243.81" width="73.143" height="12.19" rx="5" />
    <rect x="146.286" y="146.286" width="48.762" height="12.19" rx="5" />
    <rect x="73.143" y="146.286" width="60.952" height="12.19" rx="5" />
    <rect x="0" y="146.286" width="60.952" height="12.19" rx="5" />
    <rect x="0" y="195.048" width="73.143" height="12.19" rx="5" />
    <rect x="0" y="97.524" width="73.143" height="12.19" rx="5" />
    <rect x="60.952" y="24.381" width="134.095" height="12.19" rx="5" />
    <rect x="0" y="24.381" width="48.762" height="12.19" rx="5" />
    <rect x="48.762" y="219.429" width="24.381" height="12.19" rx="5" />
    <rect x="48.762" y="73.143" width="24.381" height="12.19" rx="5" />
    <rect x="0" y="219.429" width="36.571" height="12.19" rx="5" />
    <rect x="0" y="73.143" width="36.571" height="12.19" rx="5" />
    <rect x="97.524" y="121.905" width="109.714" height="12.19" rx="5" />
    <rect x="36.571" y="121.905" width="48.762" height="12.19" rx="5" />
    <rect x="0" y="121.905" width="24.381" height="12.19" rx="5" />
    <rect x="109.714" y="48.762" width="60.952" height="12.19" rx="5" />
    <rect x="0" y="48.762" width="97.524" height="12.19" rx="5" />
    <rect x="36.571" y="170.667" width="121.905" height="12.19" rx="5" />
    <rect x="0" y="170.667" width="24.381" height="12.19" rx="5" />
    <rect x="146.286" y="73.143" width="73.143" height="12.19" rx="5" />
    <rect x="146.286" y="97.524" width="73.143" height="12.19" rx="5" />
    <rect x="0" y="0" width="158.476" height="12.19" rx="5" />
  </g>
  <g fill="currentColor" opacity="0.5">
    <rect x="158.476" y="219.429" width="24.381" height="12.19" rx="5" />
    <rect x="85.333" y="219.429" width="60.952" height="12.19" rx="5" />
    <rect x="195.048" y="219.429" width="60.952" height="12.19" rx="5" />
    <rect x="170.667" y="0" width="85.333" height="12.19" rx="5" />
    <rect x="170.667" y="170.667" width="36.571" height="12.19" rx="5" />
    <rect x="219.429" y="170.667" width="36.571" height="12.19" rx="5" />
    <rect x="207.238" y="146.286" width="48.762" height="12.19" rx="5" />
    <rect x="207.238" y="24.381" width="48.762" height="12.19" rx="5" />
    <rect x="219.429" y="121.905" width="36.571" height="12.19" rx="5" />
    <rect x="219.429" y="48.762" width="36.571" height="12.19" rx="5" />
    <rect x="231.619" y="73.143" width="24.381" height="12.19" rx="5" />
    <rect x="231.619" y="97.524" width="24.381" height="12.19" rx="5" />
    <rect x="134.095" y="195.048" width="121.905" height="12.19" rx="5" />
    <rect x="85.333" y="195.048" width="36.571" height="12.19" rx="5" />
    <rect x="182.857" y="243.81" width="73.143" height="12.19" rx="5" />
    <rect x="85.333" y="243.81" width="85.333" height="12.19" rx="5" />
    <rect x="85.333" y="73.143" width="48.762" height="12.19" rx="5" />
    <rect x="85.333" y="97.524" width="48.762" height="12.19" rx="5" />
  </g>
</svg>
